# AST/ASF file generated using VICON BodyLanguage
# -----------------------------------------------
:version 1.10
:name VICON
:units
  mass 1.0
  length 0.45
  angle deg
:documentation
   .ast/.asf automatically generated from VICON data using
   VICON BodyBuilder and BodyLanguage model FoxedUp or BRILLIANT.MOD
:root
   order TX TY TZ RX RY RZ
   axis XYZ
   position 0 0 0  
   orientation 0 0 0 
:bonedata
  begin
     id 1 
     name lhipjoint
     direction 0.561145 -0.797705 0.220866 
     length 2.46425 
     axis 0 0 0  XYZ
  end
  begin
     id 2 
     name lfemur
     direction 0.34202 -0.939693 0  
     length 7.95556  
     axis 0 0 20  XYZ
    dof rx ry rz
    limits (-160.0 20.0)
           (-70.0 70.0)
           (-60.0 70.0)
  end
  begin
     id 3 
     name ltibia
     direction 0.34202 -0.939693 0   
     length 7.9832   
     axis 0 0 20   XYZ
    dof rx
    limits (-10.0 170.0)
  end
  begin
     id 4 
     name lfoot
     direction 0.0723927 -0.198897 0.977343   
     length 2.23085   
     axis -90 7.62852e-016 20   XYZ
    dof rx rz
    limits (-45.0 90.0)
           (-70.0 20.0)
  end
  begin
     id 5 
     name ltoes
     direction 1.53826e-011 -4.21988e-011 1   
     length 1.12127   
     axis -90 7.62852e-016 20   XYZ
    dof rx
    limits (-90.0 20.0)
  end
  begin
     id 6 
     name rhipjoint
     direction -0.610499 -0.763299 0.21134   
     length 2.57533  
     axis 0 0 0  XYZ 
  end
  begin
     id 7 
     name rfemur
     direction -0.34202 -0.939693 0   
     length 8.65257   
     axis 0 0 -20   XYZ
    dof rx ry rz
    limits (-160.0 20.0)
           (-70.0 70.0)
           (-70.0 60.0)
  end
  begin
     id 8 
     name rtibia
     direction -0.342021 -0.939692 0   
     length 7.37807   
     axis 0 0 -20   XYZ
    dof rx
    limits (-10.0 170.0)
 end
 begin
     id 9 
     name rfoot
     direction -0.0239304 -0.0543852 0.998233   
     length 1.87018  
     axis -90 -7.62852e-016 -20   XYZ
    dof rx rz
    limits (-45.0 90.0)
           (-20.0 70.0)
  end
  begin
     id 10 
     name rtoes
     direction -1.53584e-011 -4.2242e-011 1   
     length 0.951568   
     axis -90 -7.62852e-016 -20   XYZ
    dof rx
    limits (-90.0 20.0)
  end
  begin
     id 11 
     name lowerback
     direction 0.00322089 0.999033 0.0438587   
     length 2.07568   
     axis 0 0 0   XYZ
    dof rx ry rz
    limits (-20.0 45.0)
           (-30.0 30.0)
           (-30.0 30.0)
  end
  begin
     id 12 
     name upperback
     direction -0.00321932 0.999732 -0.0229403   
     length 2.06253   
     axis 0 0 0   XYZ
    dof rx ry rz
    limits (-20.0 45.0)
           (-30.0 30.0)
           (-30.0 30.0)
  end
  begin
     id 13 
     name thorax
     direction -0.00537537 0.998955 -0.0453918   
     length 2.06975   
     axis 0 0 0   XYZ
    dof rx ry rz
    limits (-20.0 45.0)
           (-30.0 30.0)
           (-30.0 30.0)
  end
  begin
     id 14 
     name lowerneck
     direction -0.00013604 0.994111 0.108363   
     length 1.50836   
     axis 0 0 0   XYZ
    dof rx ry rz
    limits (-20.0 45.0)
           (-30.0 30.0)
           (-30.0 30.0)
  end
  begin
     id 15 
     name upperneck
     direction 0.0397262 0.983859 -0.174482   
     length 1.53037   
     axis 0 0 0   XYZ
    dof rx ry rz
    limits (-20.0 45.0)
           (-30.0 30.0)
           (-30.0 30.0)
  end
  begin
     id 16
     name head
     direction 0.0109991 0.997082 -0.0755378  
     length 1.56928  
     axis 0 0 0   XYZ
    dof rx ry rz
    limits (-20.0 45.0)
           (-30.0 30.0)
           (-30.0 30.0)
  end
  begin
     id 17 
     name lclavicle
     direction 0.964749 0.254 -0.068874  
     length 3.26503  
     axis 0 0 0   XYZ
    dof ry rz
    limits (-20.0 10.0)
           (0.0 20.0)
  end
  begin
     id 18 
     name lhumerus
     direction 1 -4.48941e-011 -2.05079e-027   
     length 5.68236   
     axis 180 -30 -90   XYZ
    dof rx ry rz
    limits (-60.0 90.0)
           (-90.0 90.0)
           (-90.0 90.0)
  end
  begin
     id 19
     name lradius
     direction 1 -4.48956e-011 6.2882e-027   
     length 3.17112   
     axis 180 -30 -90   XYZ
    dof rx
    limits (-10.0 170.0)
  end
  begin
     id 20
     name lwrist
     direction 1 -4.49014e-011 1.73219e-026   
     length 1.58556   
     axis -1.04724e-014 90 90   XYZ
    dof ry
    limits (-180.0 0.0)
 end
  begin
     id 21 
     name lhand
     direction 1 -4.49312e-011 3.46438e-026   
     length 0.632691   
     axis -2.21057e-014 90 90   XYZ
    dof rx rz
    limits (-90.0 90.0)
           (-45.0 45.0)
  end
  begin
     id 22 
     name lfingers
     direction 1 -4.48894e-011 6.92876e-026   
     length 0.510091   
     axis -4.42114e-014 90 90   XYZ
    dof rx
    limits (0.0 90.0)
  end
  begin
     id 23
     name lthumb
     direction 0.707107 -6.34705e-011 0.707107   
     length 0.732392   
     axis -90 45 2.85299e-015   XYZ
    dof rx rz
    limits (-45.0 45.0)
           (-45.0 45.0)
  end
  begin
     id 24 
     name rclavicle
     direction -0.954374 0.280496 -0.102435   
     length 3.25419  
     axis 0 0 0   XYZ 
    dof ry rz
    limits (-10.0 20.0)
           (-20.0 0.0)
  end
  begin
     id 25 
     name rhumerus
     direction -1 -4.48994e-011 -1.07204e-017  
     length 5.8712   
     axis 180 30 90   XYZ
    dof rx ry rz
    limits (-90.0 60.0)
           (-90.0 90.0)
           (-90.0 90.0)
  end
  begin
     id 26 
     name rradius
     direction -1 -4.48972e-011 5.89292e-027   
     length 3.37589   
     axis 180 30 90   XYZ
    dof rx
    limits (-10.0 170.0)
  end
  begin
     id 27 
     name rwrist
     direction -1 -4.48942e-011 1.73219e-026   
     length 1.68794   
     axis -1.04724e-014 -90 -90   XYZ
    dof ry
    limits (-180.0 0.0)
  end
  begin
     id 28
     name rhand
     direction -1 -4.48514e-011 3.46438e-026   
     length 0.603257   
     axis -2.21057e-014 -90 -90   XYZ
    dof rx rz
    limits (-90.0 90.0)
           (-45.0 45.0)
  end
  begin
     id 29
     name rfingers
     direction -1 -4.50028e-011 6.92876e-026   
     length 0.486362   
     axis -4.42114e-014 -90 -90   XYZ
    dof rx
    limits (0.0 90.0)
  end
  begin
     id 30
     name rthumb
     direction -0.707107 -6.34926e-011 0.707107   
     length 0.698321   
     axis -90 -45 -2.85299e-015   XYZ
    dof rx rz
    limits (-45.0 45.0)
           (-45.0 45.0)
  end
:hierarchy
  begin
    root lhipjoint rhipjoint lowerback
    lhipjoint lfemur
    lfemur ltibia
    ltibia lfoot
    lfoot ltoes
    rhipjoint rfemur
    rfemur rtibia
    rtibia rfoot
    rfoot rtoes
    lowerback upperback
    upperback thorax
    thorax lowerneck lclavicle rclavicle
    lowerneck upperneck
    upperneck head
    lclavicle lhumerus
    lhumerus lradius
    lradius lwrist
    lwrist lhand lthumb
    lhand lfingers
    rclavicle rhumerus
    rhumerus rradius
    rradius rwrist
    rwrist rhand rthumb
    rhand rfingers
  end

#!OML:ASF I:\Segmentation\Patient Classification 1\Patient 1\Session 1\Patient1.ASF
:FULLY-SPECIFIED
:DEGREES
2433
root -12.936 18.0959 0.820731 -176.708 -274.827 -1267.26
lowerback -13.6468 2.39152 -3.47738
upperback 1.79609 3.78103 0.0766115
thorax 9.38056 1.63252 2.85139
lowerneck -13.3463 -6.02619 -3.43996
upperneck 23.269 -7.96926 2.88411
head 9.83814 -3.52356 0.607924
rclavicle -6.24308e-015 -7.30534e-015
rhumerus 6.70828 12.9729 -66.1315
rradius 86.5331
rwrist 21.7175
rhand -6.87945 21.762
rfingers 7.12502
rthumb 18.9868 -7.3313
lclavicle -6.24308e-015 -7.30534e-015
lhumerus -51.1027 -17.9428 94.8291
lradius 106.824
lwrist 58.4667
lhand -3.91665 42.9518
lfingers 7.12502
lthumb 21.834 71.74
rfemur -27.0311 7.59001 13.0226
rtibia 37.9773
rfoot -18.7759 4.89757
rtoes 22.6942
lfemur -23.7893 -5.53903 -19.0528
ltibia 37.136
lfoot -25.2721 5.71004
ltoes -13.2886
2434
root -12.9353 18.0969 0.819206 -176.779 -274.812 -1267.32
lowerback -13.6492 2.37903 -3.42348
upperback 1.82836 3.75685 0.0671744
thorax 9.42304 1.62227 2.80734
lowerneck -13.5474 -6.02463 -3.39217
upperneck 23.3414 -7.97815 2.88059
head 9.90001 -3.52058 0.590857
rclavicle -8.33653e-015 -1.88845e-015
rhumerus 5.96067 12.9696 -66.4875
rradius 86.7989
rwrist 21.4554
rhand -6.87263 21.7062
rfingers 7.12502
rthumb 18.9933 -7.38644
lclavicle -8.33653e-015 -1.88845e-015
lhumerus -50.9968 -18.0303 94.8699
lradius 106.711
lwrist 57.972
lhand -3.74023 42.5884
lfingers 7.12502
lthumb 22.0034 71.3568
rfemur -27.0206 7.63374 13.0058
rtibia 37.9632
rfoot -18.842 4.8463
rtoes 22.5916
lfemur -23.7754 -5.56043 -19.0654
ltibia 37.1483
lfoot -25.3049 5.79417
ltoes -13.6608
2435
root -12.9341 18.0958 0.818471 -176.107 -274.808 -1266.66
lowerback -13.6633 2.33243 -3.37151
upperback 1.82607 3.6817 0.115494
thorax 9.43354 1.58709 2.81526
lowerneck -13.5928 -6.01907 -3.34681
upperneck 23.3157 -7.96526 2.81282
head 9.89372 -3.5194 0.56044
rclavicle -4.20554e-015 8.10048e-015
rhumerus 5.15151 13.0724 -66.8528
rradius 87.0345
rwrist 21.3043
rhand -6.88351 21.3978
rfingers 7.12502
rthumb 18.9828 -7.69587
lclavicle -4.20554e-015 8.10048e-015
lhumerus -50.9904 -17.9727 94.9236
lradius 106.657
lwrist 57.4915
lhand -3.38735 42.1499
lfingers 7.12502
lthumb 22.3422 70.878
rfemur -27.0174 7.64894 13.0764
rtibia 37.9519
rfoot -18.8458 4.80661
rtoes 22.6293
lfemur -23.789 -5.5895 -19.0012
ltibia 37.1585
lfoot -25.3489 5.85161
ltoes -13.9254
2436
root -12.9319 18.0961 0.81758 -176.359 -274.816 -1266.94
lowerback -13.699 2.28159 -3.40258
upperback 1.81309 3.61806 0.139741
thorax 9.44078 1.55402 2.84718
lowerneck -13.5435 -6.00576 -3.29182
upperneck 23.1927 -7.93853 2.72303
head 9.83289 -3.51718 0.526442
rclavicle -2.8625e-014 3.32964e-015
rhumerus 4.26756 13.1061 -67.2515
rradius 87.2238
rwrist 21.21
rhand -6.9279 21.005
rfingers 7.12502
rthumb 18.9402 -8.09283
lclavicle -2.8625e-014 3.32964e-015
lhumerus -50.9645 -17.9671 94.9922
lradius 106.548
lwrist 56.8014
lhand -3.09965 41.8342
lfingers 7.12502
lthumb 22.6183 70.529
rfemur -27.0289 7.63882 13.0497
rtibia 37.9492
rfoot -18.7966 4.80792
rtoes 22.8728
lfemur -23.8022 -5.60341 -19.0215
ltibia 37.1546
lfoot -25.3582 5.80322
ltoes -13.7085
2437
root -12.9298 18.0974 0.816483 -177.233 -274.819 -1267.84
lowerback -13.7219 2.18809 -3.48702
upperback 1.81651 3.50388 0.191076
thorax 9.45744 1.49244 2.92753
lowerneck -13.5833 -5.94629 -3.41781
upperneck 23.1044 -7.82554 2.71956
head 9.81075 -3.47957 0.559691
rclavicle -5.92627e-015 -8.94531e-016
rhumerus 3.40818 13.2688 -67.6436
rradius 87.4413
rwrist 20.6453
rhand -7.27474 20.5512
rfingers 7.12502
rthumb 18.6066 -8.57894
lclavicle -5.92627e-015 -8.94531e-016
lhumerus -50.8701 -17.8746 95.097
lradius 106.346
lwrist 55.7829
lhand -2.77189 41.6268
lfingers 7.12502
lthumb 22.9329 70.2829
rfemur -27.0464 7.65414 12.949
rtibia 37.9529
rfoot -18.8194 4.76686
rtoes 22.9226
lfemur -23.8043 -5.55203 -19.11
ltibia 37.1356
lfoot -25.2928 5.73052
ltoes -13.4242
2438
root -12.9274 18.0981 0.816507 -177.839 -274.801 -1268.47
lowerback -13.7246 2.12586 -3.50584
upperback 1.80759 3.42364 0.195271
thorax 9.45358 1.453 2.92581
lowerneck -13.6511 -5.90699 -3.52019
upperneck 23.0756 -7.76829 2.80566
head 9.81984 -3.45308 0.611507
rclavicle -9.74045e-015 -4.96962e-016
rhumerus 2.48629 13.4235 -68.1052
rradius 87.6751
rwrist 19.7908
rhand -7.86728 20.3879
rfingers 7.12502
rthumb 18.0365 -8.79579
lclavicle -9.74045e-015 -4.96962e-016
lhumerus -50.8735 -17.8635 95.1511
lradius 106.267
lwrist 54.9198
lhand -2.81192 41.7346
lfingers 7.12502
lthumb 22.8945 70.3955
rfemur -27.0648 7.71684 12.8749
rtibia 37.9519
rfoot -18.8894 4.72857
rtoes 22.7371
lfemur -23.8061 -5.44366 -19.179
ltibia 37.1093
lfoot -25.2094 5.75301
ltoes -13.6116
2439
root -12.9248 18.0978 0.816506 -178.042 -274.76 -1268.66
lowerback -13.707 2.14111 -3.44135
upperback 1.79724 3.43779 0.135176
thorax 9.43845 1.46577 2.82657
lowerneck -13.6395 -5.91603 -3.42399
upperneck 22.9849 -7.81005 2.82593
head 9.78339 -3.46463 0.598405
rclavicle 3.1818e-014 -5.26779e-015
rhumerus 1.51431 13.3782 -68.5847
rradius 87.9164
rwrist 19.3769
rhand -8.31299 20.3458
rfingers 7.12502
rthumb 17.6077 -8.87693
lclavicle 3.1818e-014 -5.26779e-015
lhumerus -50.9048 -18.0327 95.1749
lradius 106.248
lwrist 54.3716
lhand -3.34202 42.0999
lfingers 7.12502
lthumb 22.3857 70.8228
rfemur -27.0487 7.71623 12.8717
rtibia 37.9421
rfoot -18.84 4.76936
rtoes 22.6216
lfemur -23.7698 -5.41532 -19.2008
ltibia 37.0835
lfoot -25.2592 5.79218
ltoes -13.6873
2440
root -12.9219 18.0979 0.815746 -177.666 -274.723 -1268.25
lowerback -13.5991 2.17717 -3.28149
upperback 1.74988 3.46143 0.0515578
thorax 9.33684 1.49201 2.64441
lowerneck -13.5757 -5.9161 -3.27662
upperneck 22.8886 -7.85506 2.8626
head 9.7337 -3.47173 0.583982
rclavicle -2.56681e-014 1.70458e-014
rhumerus 0.409087 13.2604 -69.1147
rradius 88.2504
rwrist 19.2998
rhand -8.38914 20.2877
rfingers 7.12502
rthumb 17.5344 -8.94156
lclavicle -2.56681e-014 1.70458e-014
lhumerus -50.9478 -18.2111 95.1677
lradius 106.113
lwrist 53.7643
lhand -3.73711 42.1931
lfingers 7.12502
lthumb 22.0064 70.9611
rfemur -27.0023 7.70722 12.9291
rtibia 37.9292
rfoot -18.7868 4.75909
rtoes 22.5166
lfemur -23.7113 -5.43748 -19.1637
ltibia 37.0643
lfoot -25.3504 5.7851
ltoes -13.6414
2441
root -12.9189 18.0994 0.814337 -177.287 -274.686 -1267.9
lowerback -13.5456 2.17547 -3.17641
upperback 1.69066 3.44079 0.0249698
thorax 9.24992 1.49177 2.54781
lowerneck -13.5612 -5.90155 -3.25245
upperneck 22.8978 -7.86014 2.94168
head 9.73689 -3.46262 0.607041
rclavicle 1.66793e-014 -4.72114e-015
rhumerus -0.684338 13.1901 -69.6104
rradius 88.5861
rwrist 19.2327
rhand -8.16566 20.0273
rfingers 7.12502
rthumb 17.7494 -9.18266
lclavicle 1.66793e-014 -4.72114e-015
lhumerus -50.9055 -18.2414 95.1557
lradius 105.874
lwrist 52.9648
lhand -3.51733 41.8799
lfingers 7.12502
lthumb 22.2174 70.6229
rfemur -27.0353 7.76258 12.9453
rtibia 37.9135
rfoot -18.7981 4.68617
rtoes 22.453
lfemur -23.7184 -5.43162 -19.1312
ltibia 37.0595
lfoot -25.3733 5.78883
ltoes -13.7605
